<svg width="40" height="40" viewBox="0 0 22 22" fill="none" xmlns="http://www.w3.org/2000/svg">
<path d="M11.11 2.44617C6.40093 2.44617 2.56982 6.31103 2.56982 11.0616C2.56982 15.8121 6.40093 19.6769 11.11 19.6769C15.819 19.6769 19.6501 15.8121 19.6501 11.0616C19.6501 6.31103 15.819 2.44617 11.11 2.44617ZM11.11 17.9539C7.34291 17.9539 4.27785 14.8618 4.27785 11.0616C4.27785 7.26131 7.34291 4.16924 11.11 4.16924C14.877 4.16924 17.9421 7.26131 17.9421 11.0616C17.9421 14.8618 14.877 17.9539 11.11 17.9539Z" fill="white"/>
<path d="M11.9639 6.75385H10.2559V11.4182L13.0681 14.2553L14.2757 13.037L11.9639 10.7049V6.75385Z" fill="white"/>
</svg>
